<?xml version="1.0" encoding="utf-8"?>
<!-- Generator: Adobe Illustrator 26.3.1, SVG Export Plug-In . SVG Version: 6.00 Build 0)  -->
<svg version="1.1" id="Capa_1" xmlns="http://www.w3.org/2000/svg" xmlns:xlink="http://www.w3.org/1999/xlink" x="0px" y="0px"
	 viewBox="0 0 32 32" style="enable-background:new 0 0 32 32;" xml:space="preserve">
<style type="text/css">
	.st0{fill:#FFFFFF;}
</style>
<g>
	<circle class="st0" cx="15.88" cy="15.94" r="3.5"/>
	<path class="st0" d="M23.77,13.61c-0.16-0.54-0.37-1.07-0.64-1.56c-0.29-0.55-0.65-1.06-1.06-1.52c-0.25-0.29-0.52-0.55-0.8-0.8
		c-0.16-0.14-0.32-0.27-0.49-0.4c-0.9-0.68-1.96-1.17-3.1-1.43c-0.58-0.13-1.19-0.2-1.81-0.2c-0.62,0-1.22,0.07-1.8,0.2
		c-0.67,0.15-1.31,0.38-1.91,0.69c-0.64,0.32-1.22,0.72-1.74,1.18c-0.25,0.22-0.48,0.45-0.7,0.7c-0.28,0.32-0.53,0.65-0.76,1.01
		c-0.42,0.65-0.75,1.36-0.97,2.11c-0.22,0.74-0.34,1.53-0.34,2.34c0,0.63,0.07,1.25,0.21,1.84c0.11,0.47,0.26,0.92,0.44,1.35
		c0.58,1.37,1.51,2.55,2.69,3.42c0.75,0.55,1.59,0.99,2.5,1.26c0.76,0.23,1.56,0.35,2.39,0.35c0.63,0,1.23-0.07,1.82-0.2
		c0.97-0.22,1.88-0.61,2.69-1.15c0.28-0.18,0.54-0.38,0.8-0.6c0.35-0.3,0.68-0.62,0.97-0.97c0.36-0.43,0.69-0.9,0.96-1.41
		c0.34-0.63,0.6-1.3,0.76-2.01c0.15-0.61,0.22-1.24,0.22-1.89C24.1,15.13,23.99,14.35,23.77,13.61z M15.88,21.8
		c-3.24,0-5.86-2.63-5.86-5.86s2.62-5.86,5.86-5.86c3.24,0,5.86,2.63,5.86,5.86S19.11,21.8,15.88,21.8z"/>
	<polygon class="st0" points="17.66,6.15 17.5,6.75 15.99,12.44 14.44,6.76 14.29,6.23 14.51,5.54 15.96,0.88 17.41,5.35 	"/>
	<path class="st0" d="M11.49,7.76c-1.51,0.98-2.8,2.26-3.78,3.77l-4.09-7.8L11.49,7.76z"/>
	<polygon class="st0" points="12.38,15.68 7.01,17.15 6.11,17.4 5.48,17.2 0.88,15.77 5.3,14.34 6.21,14.05 7.02,14.26 	"/>
	<polygon class="st0" points="17.68,25.72 17.49,26.34 16,31.12 14.52,26.52 14.28,25.78 14.56,24.72 15.96,19.44 17.41,24.72 	"/>
	<path class="st0" d="M11.49,24.03l-7.88,4.13l4.09-7.99C8.66,21.72,9.96,23.05,11.49,24.03z"/>
	<path class="st0" d="M28.37,28.06l-7.88-4.03c1.53-0.95,2.82-2.25,3.78-3.77L28.37,28.06z"/>
	<polygon class="st0" points="31.12,15.65 26.47,17.15 25.77,17.38 24.99,17.17 19.38,15.68 24.96,14.15 25.68,13.95 26.28,14.14 	
		"/>
	<path class="st0" d="M28.04,3.57l-4.07,7.95C22.99,10,21.69,8.7,20.16,7.71L28.04,3.57z"/>
</g>
</svg>
